# xmcd
#
# Track frame offsets: 
#        150
#        21947
#        36552
#        56159
#        70753
#        89641
#        114624
#        133112
#        150272
#        179548
#        204059
#        221288
#        248485
#
# Disc length: 3498 seconds
#
# Revision: 0
# Processed by: cddbd v1.5.2PL0 Copyright (c) Steve Scherf et al.
# Submitted via: ExactAudioCopy v1.3
#
DISCID=b30da80d
DTITLE=Pa Crude - Under The Wrecking Ball
DYEAR=2011
DGENRE=Blues Rock
TTITLE0=Under The Wrecking Ball
TTITLE1=Shoes
TTITLE2=DC Blues
TTITLE3=Death Is A Woman
TTITLE4=Black Cat
TTITLE5=We Need The Rain
TTITLE6=Revelation Tree
TTITLE7=7 To 1 Blues
TTITLE8=Suicide Whine
TTITLE9=Can't Afford You
TTITLE10=It's All Over
TTITLE11=Blues Train
TTITLE12=Honky Tonk Bars
EXTD=
EXTT0=
EXTT1=
EXTT2=
EXTT3=
EXTT4=
EXTT5=
EXTT6=
EXTT7=
EXTT8=
EXTT9=
EXTT10=
EXTT11=
EXTT12=
PLAYORDER=
